<?xml version="1.0" encoding="UTF-8" standalone="no"?>
<!-- Created with Inkscape (http://www.inkscape.org/) -->

<svg
   xmlns:dc="http://purl.org/dc/elements/1.1/"
   xmlns:cc="http://creativecommons.org/ns#"
   xmlns:rdf="http://www.w3.org/1999/02/22-rdf-syntax-ns#"
   xmlns:svg="http://www.w3.org/2000/svg"
   xmlns="http://www.w3.org/2000/svg"
   xmlns:xlink="http://www.w3.org/1999/xlink"
   xmlns:sodipodi="http://sodipodi.sourceforge.net/DTD/sodipodi-0.dtd"
   xmlns:inkscape="http://www.inkscape.org/namespaces/inkscape"
   width="210mm"
   height="297mm"
   viewBox="0 0 210 297"
   version="1.1"
   id="svg8"
   inkscape:version="0.92.2 2405546, 2018-03-11"
   sodipodi:docname="drawing.svg">
  <defs
     id="defs2">
    <linearGradient
       inkscape:collect="always"
       id="linearGradient4641">
      <stop
         id="stop4637"
         offset="0"
         style="stop-color:#58d2ff;stop-opacity:1" />
      <stop
         id="stop4639"
         offset="1"
         style="stop-color:#0800d1;stop-opacity:1" />
    </linearGradient>
    <linearGradient
       inkscape:collect="always"
       xlink:href="#linearGradient4641"
       id="linearGradient4555"
       x1="27.525383"
       y1="147.04309"
       x2="152.61426"
       y2="147.04375"
       gradientUnits="userSpaceOnUse"
       gradientTransform="matrix(0.90330668,0,0,0.90330668,-178.83884,-11.709283)" />
  </defs>
  <sodipodi:namedview
     id="base"
     pagecolor="#ffffff"
     bordercolor="#666666"
     borderopacity="1.0"
     inkscape:pageopacity="0.0"
     inkscape:pageshadow="2"
     inkscape:zoom="0.49497475"
     inkscape:cx="-109.81251"
     inkscape:cy="567.38563"
     inkscape:document-units="mm"
     inkscape:current-layer="layer1"
     showgrid="false"
     inkscape:snap-intersection-paths="true"
     inkscape:window-width="1920"
     inkscape:window-height="1017"
     inkscape:window-x="0"
     inkscape:window-y="29"
     inkscape:window-maximized="1" />
  <metadata
     id="metadata5">
    <rdf:RDF>
      <cc:Work
         rdf:about="">
        <dc:format>image/svg+xml</dc:format>
        <dc:type
           rdf:resource="http://purl.org/dc/dcmitype/StillImage" />
        <dc:title />
      </cc:Work>
    </rdf:RDF>
  </metadata>
  <g
     inkscape:label="Layer 1"
     inkscape:groupmode="layer"
     id="layer1">
    <rect
       style="opacity:1;fill:#e6e6e6;fill-opacity:1;stroke:none;stroke-width:1.90552914;stroke-linecap:square;stroke-linejoin:miter;stroke-miterlimit:4;stroke-dasharray:none;stroke-opacity:1;paint-order:stroke markers fill"
       id="rect4520"
       width="203.12485"
       height="242.68073"
       x="-264.6973"
       y="-47.624947" />
    <path
       style="fill:none;stroke:#ffffff;stroke-width:10.27985668;stroke-linecap:butt;stroke-linejoin:miter;stroke-miterlimit:4;stroke-dasharray:none;stroke-opacity:1"
       d="m -184.50585,83.857162 c 13.69999,-11.2223 57.07392,7.92798 61.49061,31.623248 -16.68337,-78.820588 70.471536,-137.367589 54.761436,-116.47872673"
       id="path4524"
       inkscape:connector-curvature="0"
       sodipodi:nodetypes="ccc" />
    <g
       id="g1466"
       inkscape:export-xdpi="31.733143"
       inkscape:export-ydpi="31.733143"
       transform="translate(3.2072343,16.570711)">
      <path
         inkscape:connector-curvature="0"
         id="path4518"
         d="M 97.478165,63.502017 A 57.630639,57.630639 0 0 0 39.847574,121.13261 57.630639,57.630639 0 0 0 97.478165,178.7632 57.630639,57.630639 0 0 0 155.10876,121.13261 57.630639,57.630639 0 0 0 97.478165,63.502017 Z m 0,1.13378 A 56.496711,56.496711 0 0 1 153.97498,121.13261 56.496711,56.496711 0 0 1 97.478165,177.62942 56.496711,56.496711 0 0 1 40.981353,121.13261 56.496711,56.496711 0 0 1 97.478165,64.635797 Z"
         style="opacity:1;fill:#e6e6e6;fill-opacity:1;stroke:none;stroke-width:4.15395832;stroke-linecap:square;stroke-linejoin:miter;stroke-miterlimit:4;stroke-dasharray:none;stroke-opacity:1;paint-order:stroke markers fill" />
      <circle
         transform="scale(-1,1)"
         inkscape:export-ydpi="28.20722"
         inkscape:export-xdpi="28.20722"
         style="opacity:1;fill:url(#linearGradient4555);fill-opacity:1;stroke:none;stroke-width:2.08704591;stroke-linecap:square;stroke-linejoin:miter;stroke-miterlimit:4;stroke-dasharray:none;stroke-opacity:1;paint-order:stroke markers fill"
         id="circle4547"
         cx="-97.478165"
         cy="121.13261"
         r="56.496712" />
      <circle
         inkscape:export-ydpi="28.20722"
         inkscape:export-xdpi="28.20722"
         style="opacity:1;fill:#ffffff;fill-opacity:1;stroke:none;stroke-width:1.94741762;stroke-linecap:square;stroke-linejoin:miter;stroke-miterlimit:4;stroke-dasharray:none;stroke-opacity:1;paint-order:stroke markers fill"
         id="circle4557"
         cx="97.478165"
         cy="121.13261"
         r="52.716949" />
      <g
         style="fill:#333333;fill-opacity:1"
         transform="translate(16.570711,92.464512)"
         id="g1448">
        <path
           inkscape:connector-curvature="0"
           id="path4530"
           style="font-style:normal;font-variant:normal;font-weight:bold;font-stretch:normal;font-size:medium;line-height:1.25;font-family:Raleway-v4020;-inkscape-font-specification:'Raleway-v4020 Bold';letter-spacing:0px;word-spacing:0px;fill:#333333;fill-opacity:1;stroke:none;stroke-width:0.91203016"
           d="m 51.646395,20.131482 v -4.41422 H 30.086002 v 4.41422 h 8.281234 v 21.48744 h 4.997925 v -21.48744 z" />
        <path
           inkscape:connector-curvature="0"
           id="path4532"
           style="font-style:normal;font-variant:normal;font-weight:bold;font-stretch:normal;font-size:medium;line-height:1.25;font-family:Raleway-v4020;-inkscape-font-specification:'Raleway-v4020 Bold';letter-spacing:0px;word-spacing:0px;fill:#333333;fill-opacity:1;stroke:none;stroke-width:0.91203016"
           d="m 52.723162,28.668082 c 0,6.63959 5.070888,13.13325 12.622497,13.13325 7.332723,0 12.658978,-6.20181 12.658978,-13.06028 0,-6.53013 -5.034406,-13.20619 -12.549534,-13.20619 -7.332723,0 -12.731941,6.23828 -12.731941,13.13322 z m 12.658978,8.68254 c -4.779038,0 -7.551609,-4.19534 -7.551609,-8.68254 0,-4.2683 2.663128,-8.64604 7.551609,-8.64604 4.669595,0 7.55161,4.15886 7.55161,8.64604 0,4.26831 -2.663129,8.68254 -7.55161,8.68254 z" />
        <path
           inkscape:connector-curvature="0"
           id="path4534"
           style="font-style:normal;font-variant:normal;font-weight:bold;font-stretch:normal;font-size:medium;line-height:1.25;font-family:Raleway-v4020;-inkscape-font-specification:'Raleway-v4020 Bold';letter-spacing:0px;word-spacing:0px;fill:#333333;fill-opacity:1;stroke:none;stroke-width:0.91203016"
           d="m 81.866515,41.618922 h 9.412145 c 7.770498,0 12.76843,-5.14386 12.76843,-12.98731 0,-7.15032 -4.304792,-12.91435 -12.76843,-12.91435 h -9.412145 z m 9.412145,-21.48744 c 4.888488,0 7.697538,3.5022 7.697538,8.50013 0,4.88848 -2.73609,8.57308 -7.697538,8.57308 h -4.37774 v -17.07321 z" />
        <path
           inkscape:connector-curvature="0"
           id="path4536"
           style="font-style:normal;font-variant:normal;font-weight:bold;font-stretch:normal;font-size:medium;line-height:1.25;font-family:Raleway-v4020;-inkscape-font-specification:'Raleway-v4020 Bold';letter-spacing:0px;word-spacing:0px;fill:#333333;fill-opacity:1;stroke:none;stroke-width:0.91203016;stroke-opacity:1"
           d="m 106.44743,28.668082 c 0,6.63959 5.0709,13.13325 12.6225,13.13325 7.33272,0 12.65898,-6.20181 12.65898,-13.06028 0,-6.53013 -5.03441,-13.20619 -12.54954,-13.20619 -7.33272,0 -12.73194,6.23828 -12.73194,13.13322 z m 12.65898,8.68254 c -4.77903,0 -7.55161,-4.19534 -7.55161,-8.68254 0,-4.2683 2.66313,-8.64604 7.55161,-8.64604 4.6696,0 7.55162,4.15886 7.55162,8.64604 0,4.26831 -2.66314,8.68254 -7.55162,8.68254 z" />
      </g>
    </g>
  </g>
</svg>
